<svg width="663" height="259" viewBox="0 0 663 259" fill="none" xmlns="http://www.w3.org/2000/svg">
    <g clip-path="url(#clip0_1_5)">
        <path d="M136 48.4H41.6C18.6 48.4 0 67.1 0 90.1C0 113.1 18.6 131.7 41.6 131.7H136C159 131.7 177.6 113.1 177.6 90.1C177.6 67.1 159 48.4 136 48.4Z" fill="#8DE8FE"/>
        <path d="M227.2 48.4C204.2 48.4 185.6 67 185.6 90C185.6 113 204.2 131.6 227.2 131.6C250.2 131.6 268.8 113 268.8 90C268.8 67 250.2 48.4 227.2 48.4Z" fill="white"/>
        <path d="M161.406 103.609C168.89 88.6414 162.823 70.4411 147.856 62.9573C132.888 55.4735 114.688 61.5403 107.204 76.5079C99.7203 91.4755 105.787 109.676 120.755 117.16C135.722 124.643 153.923 118.577 161.406 103.609Z" fill="black"/>
        <path d="M18.472 209.88C15.9493 209.88 13.28 209.616 10.464 209.088C7.648 208.56 5.12533 207.651 2.896 206.36C1.95733 205.773 1.28266 205.099 0.871998 204.336C0.519998 203.515 0.373331 202.723 0.431997 201.96C0.549331 201.139 0.842664 200.435 1.312 199.848C1.84 199.261 2.48533 198.88 3.248 198.704C4.06933 198.528 4.94933 198.675 5.888 199.144C8.23466 200.259 10.4347 201.051 12.488 201.52C14.5413 201.931 16.5653 202.136 18.56 202.136C21.376 202.136 23.4587 201.667 24.808 200.728C26.216 199.731 26.92 198.44 26.92 196.856C26.92 195.507 26.4507 194.48 25.512 193.776C24.632 193.013 23.2827 192.456 21.464 192.104L12.664 190.432C9.02666 189.728 6.24 188.408 4.304 186.472C2.42666 184.477 1.488 181.925 1.488 178.816C1.488 176 2.25066 173.565 3.776 171.512C5.36 169.459 7.53066 167.875 10.288 166.76C13.0453 165.645 16.2133 165.088 19.792 165.088C22.3733 165.088 24.7787 165.381 27.008 165.968C29.296 166.496 31.496 167.347 33.608 168.52C34.488 168.989 35.0747 169.605 35.368 170.368C35.72 171.131 35.808 171.923 35.632 172.744C35.456 173.507 35.104 174.211 34.576 174.856C34.048 175.443 33.3733 175.824 32.552 176C31.7893 176.117 30.9093 175.941 29.912 175.472C28.0933 174.533 26.3333 173.859 24.632 173.448C22.9893 173.037 21.4053 172.832 19.88 172.832C17.0053 172.832 14.864 173.331 13.456 174.328C12.1067 175.325 11.432 176.645 11.432 178.288C11.432 179.52 11.8427 180.547 12.664 181.368C13.4853 182.189 14.7467 182.747 16.448 183.04L25.248 184.712C29.0613 185.416 31.936 186.707 33.872 188.584C35.8667 190.461 36.864 192.984 36.864 196.152C36.864 200.435 35.192 203.808 31.848 206.272C28.504 208.677 24.0453 209.88 18.472 209.88Z" fill="#8DE8FE"/>
        <path d="M54.6647 209.704C52.9047 209.704 51.5554 209.235 50.6167 208.296C49.6781 207.299 49.2087 205.891 49.2087 204.072V170.808C49.2087 168.989 49.6781 167.611 50.6167 166.672C51.5554 165.733 52.8754 165.264 54.5767 165.264C56.2781 165.264 57.5981 165.733 58.5367 166.672C59.4754 167.611 59.9447 168.989 59.9447 170.808V176.792L58.9767 174.592C60.2674 171.483 62.2621 169.136 64.9607 167.552C67.7181 165.909 70.8274 165.088 74.2887 165.088C77.7501 165.088 80.5954 165.733 82.8248 167.024C85.0541 168.315 86.7261 170.28 87.8408 172.92C88.9554 175.501 89.5127 178.787 89.5127 182.776V204.072C89.5127 205.891 89.0434 207.299 88.1048 208.296C87.1661 209.235 85.8167 209.704 84.0567 209.704C82.2967 209.704 80.9181 209.235 79.9208 208.296C78.9821 207.299 78.5127 205.891 78.5127 204.072V183.304C78.5127 179.96 77.8674 177.525 76.5768 176C75.3448 174.475 73.4087 173.712 70.7687 173.712C67.5421 173.712 64.9608 174.739 63.0247 176.792C61.1474 178.787 60.2087 181.456 60.2087 184.8V204.072C60.2087 207.827 58.3607 209.704 54.6647 209.704Z" fill="#8DE8FE"/>
        <path d="M124.093 209.88C119.576 209.88 115.645 208.971 112.301 207.152C108.957 205.275 106.376 202.635 104.557 199.232C102.739 195.829 101.829 191.84 101.829 187.264C101.829 183.803 102.328 180.723 103.325 178.024C104.381 175.267 105.877 172.949 107.813 171.072C109.749 169.136 112.096 167.669 114.853 166.672C117.611 165.616 120.691 165.088 124.093 165.088C126.029 165.088 128.112 165.352 130.341 165.88C132.629 166.408 134.771 167.288 136.765 168.52C137.704 169.107 138.32 169.811 138.613 170.632C138.907 171.453 138.965 172.304 138.789 173.184C138.613 174.005 138.232 174.739 137.645 175.384C137.117 175.971 136.443 176.352 135.621 176.528C134.8 176.645 133.891 176.44 132.893 175.912C131.603 175.149 130.283 174.592 128.933 174.24C127.584 173.829 126.293 173.624 125.061 173.624C123.125 173.624 121.424 173.947 119.957 174.592C118.491 175.179 117.229 176.059 116.173 177.232C115.176 178.347 114.413 179.755 113.885 181.456C113.357 183.157 113.093 185.123 113.093 187.352C113.093 191.693 114.12 195.125 116.173 197.648C118.285 200.112 121.248 201.344 125.061 201.344C126.293 201.344 127.555 201.168 128.845 200.816C130.195 200.464 131.544 199.907 132.893 199.144C133.891 198.616 134.771 198.44 135.533 198.616C136.355 198.792 137.029 199.203 137.557 199.848C138.085 200.435 138.408 201.168 138.525 202.048C138.643 202.869 138.525 203.691 138.173 204.512C137.88 205.333 137.293 206.008 136.413 206.536C134.477 207.709 132.424 208.56 130.253 209.088C128.083 209.616 126.029 209.88 124.093 209.88Z" fill="#8DE8FE"/>
        <path d="M157.853 209.704C156.093 209.704 154.714 209.235 153.717 208.296C152.778 207.299 152.309 205.891 152.309 204.072V174.24H148.261C146.853 174.24 145.768 173.888 145.005 173.184C144.242 172.421 143.861 171.395 143.861 170.104C143.861 168.755 144.242 167.728 145.005 167.024C145.768 166.32 146.853 165.968 148.261 165.968H155.477L152.309 168.872V165.88C152.309 159.837 153.834 155.32 156.885 152.328C159.936 149.277 164.336 147.488 170.085 146.96L173.077 146.696C174.25 146.579 175.189 146.784 175.893 147.312C176.597 147.781 177.066 148.427 177.301 149.248C177.536 150.011 177.565 150.803 177.389 151.624C177.213 152.445 176.832 153.179 176.245 153.824C175.717 154.411 175.013 154.733 174.133 154.792L172.901 154.88C169.557 155.115 167.122 155.965 165.597 157.432C164.072 158.899 163.309 161.128 163.309 164.12V167.376L161.901 165.968H170.789C172.197 165.968 173.282 166.32 174.045 167.024C174.808 167.728 175.189 168.755 175.189 170.104C175.189 171.395 174.808 172.421 174.045 173.184C173.282 173.888 172.197 174.24 170.789 174.24H163.309V204.072C163.309 207.827 161.49 209.704 157.853 209.704Z" fill="#8DE8FE"/>
        <path d="M200.302 209.88C197.779 209.88 195.11 209.616 192.294 209.088C189.478 208.56 186.955 207.651 184.726 206.36C183.787 205.773 183.113 205.099 182.702 204.336C182.35 203.515 182.203 202.723 182.262 201.96C182.379 201.139 182.673 200.435 183.142 199.848C183.67 199.261 184.315 198.88 185.078 198.704C185.899 198.528 186.779 198.675 187.718 199.144C190.065 200.259 192.265 201.051 194.318 201.52C196.371 201.931 198.395 202.136 200.39 202.136C203.206 202.136 205.289 201.667 206.638 200.728C208.046 199.731 208.75 198.44 208.75 196.856C208.75 195.507 208.281 194.48 207.342 193.776C206.462 193.013 205.113 192.456 203.294 192.104L194.494 190.432C190.857 189.728 188.07 188.408 186.134 186.472C184.257 184.477 183.318 181.925 183.318 178.816C183.318 176 184.081 173.565 185.606 171.512C187.19 169.459 189.361 167.875 192.118 166.76C194.875 165.645 198.043 165.088 201.622 165.088C204.203 165.088 206.609 165.381 208.838 165.968C211.126 166.496 213.326 167.347 215.438 168.52C216.318 168.989 216.905 169.605 217.198 170.368C217.55 171.131 217.638 171.923 217.462 172.744C217.286 173.507 216.934 174.211 216.406 174.856C215.878 175.443 215.203 175.824 214.382 176C213.619 176.117 212.739 175.941 211.742 175.472C209.923 174.533 208.163 173.859 206.462 173.448C204.819 173.037 203.235 172.832 201.71 172.832C198.835 172.832 196.694 173.331 195.286 174.328C193.937 175.325 193.262 176.645 193.262 178.288C193.262 179.52 193.673 180.547 194.494 181.368C195.315 182.189 196.577 182.747 198.278 183.04L207.078 184.712C210.891 185.416 213.766 186.707 215.702 188.584C217.697 190.461 218.694 192.984 218.694 196.152C218.694 200.435 217.022 203.808 213.678 206.272C210.334 208.677 205.875 209.88 200.302 209.88Z" fill="white"/>
        <path d="M236.671 209.704C234.911 209.704 233.561 209.235 232.623 208.296C231.684 207.299 231.215 205.891 231.215 204.072V170.808C231.215 168.989 231.684 167.611 232.623 166.672C233.561 165.733 234.881 165.264 236.583 165.264C238.284 165.264 239.604 165.733 240.543 166.672C241.481 167.611 241.951 168.989 241.951 170.808V177.232L240.983 174.592C242.156 171.659 243.975 169.341 246.439 167.64C248.903 165.939 251.836 165.088 255.239 165.088C258.7 165.088 261.545 165.909 263.775 167.552C266.004 169.195 267.559 171.717 268.439 175.12H267.207C268.38 172.011 270.316 169.576 273.015 167.816C275.713 165.997 278.823 165.088 282.343 165.088C285.628 165.088 288.327 165.733 290.439 167.024C292.609 168.315 294.223 170.28 295.279 172.92C296.335 175.501 296.863 178.787 296.863 182.776V204.072C296.863 205.891 296.364 207.299 295.367 208.296C294.428 209.235 293.079 209.704 291.319 209.704C289.559 209.704 288.209 209.235 287.271 208.296C286.332 207.299 285.863 205.891 285.863 204.072V183.216C285.863 179.931 285.305 177.525 284.191 176C283.135 174.475 281.316 173.712 278.735 173.712C275.86 173.712 273.601 174.739 271.959 176.792C270.316 178.787 269.495 181.573 269.495 185.152V204.072C269.495 205.891 269.025 207.299 268.087 208.296C267.148 209.235 265.799 209.704 264.039 209.704C262.279 209.704 260.9 209.235 259.903 208.296C258.964 207.299 258.495 205.891 258.495 204.072V183.216C258.495 179.931 257.937 177.525 256.823 176C255.767 174.475 253.977 173.712 251.455 173.712C248.58 173.712 246.321 174.739 244.679 176.792C243.036 178.787 242.215 181.573 242.215 185.152V204.072C242.215 207.827 240.367 209.704 236.671 209.704Z" fill="white"/>
        <path d="M325.899 209.88C322.789 209.88 320.003 209.293 317.539 208.12C315.133 206.888 313.227 205.245 311.819 203.192C310.469 201.139 309.795 198.821 309.795 196.24C309.795 193.072 310.616 190.579 312.259 188.76C313.901 186.883 316.571 185.533 320.267 184.712C323.963 183.891 328.92 183.48 335.139 183.48H339.539V189.816H335.227C331.589 189.816 328.685 189.992 326.515 190.344C324.344 190.696 322.789 191.312 321.851 192.192C320.971 193.013 320.531 194.187 320.531 195.712C320.531 197.648 321.205 199.232 322.555 200.464C323.904 201.696 325.781 202.312 328.187 202.312C330.123 202.312 331.824 201.872 333.291 200.992C334.816 200.053 336.019 198.792 336.899 197.208C337.779 195.624 338.219 193.805 338.219 191.752V181.632C338.219 178.699 337.573 176.587 336.283 175.296C334.992 174.005 332.821 173.36 329.771 173.36C328.069 173.36 326.221 173.565 324.227 173.976C322.291 174.387 320.237 175.091 318.067 176.088C316.952 176.616 315.955 176.763 315.075 176.528C314.253 176.293 313.608 175.824 313.139 175.12C312.669 174.357 312.435 173.536 312.435 172.656C312.435 171.776 312.669 170.925 313.139 170.104C313.608 169.224 314.4 168.579 315.515 168.168C318.213 167.053 320.795 166.261 323.259 165.792C325.781 165.323 328.069 165.088 330.123 165.088C334.347 165.088 337.808 165.733 340.507 167.024C343.264 168.315 345.317 170.28 346.667 172.92C348.016 175.501 348.691 178.845 348.691 182.952V204.072C348.691 205.891 348.251 207.299 347.371 208.296C346.491 209.235 345.229 209.704 343.587 209.704C341.944 209.704 340.653 209.235 339.715 208.296C338.835 207.299 338.395 205.891 338.395 204.072V199.848H339.099C338.688 201.901 337.867 203.691 336.635 205.216C335.461 206.683 333.965 207.827 332.147 208.648C330.328 209.469 328.245 209.88 325.899 209.88Z" fill="white"/>
        <path d="M369.008 209.704C367.189 209.704 365.781 209.235 364.784 208.296C363.845 207.299 363.376 205.891 363.376 204.072V170.808C363.376 168.989 363.845 167.611 364.784 166.672C365.722 165.733 367.042 165.264 368.744 165.264C370.445 165.264 371.765 165.733 372.704 166.672C373.642 167.611 374.112 168.989 374.112 170.808V176.352H373.232C374.053 172.832 375.666 170.163 378.072 168.344C380.477 166.525 383.674 165.44 387.664 165.088C388.896 164.971 389.864 165.293 390.568 166.056C391.33 166.76 391.77 167.875 391.888 169.4C392.005 170.867 391.653 172.069 390.832 173.008C390.069 173.888 388.896 174.416 387.312 174.592L385.376 174.768C381.797 175.12 379.098 176.235 377.28 178.112C375.461 179.931 374.552 182.512 374.552 185.856V204.072C374.552 205.891 374.082 207.299 373.144 208.296C372.205 209.235 370.826 209.704 369.008 209.704Z" fill="white"/>
        <path d="M423.561 209.88C419.747 209.88 416.55 209.235 413.969 207.944C411.446 206.653 409.569 204.776 408.337 202.312C407.105 199.789 406.489 196.68 406.489 192.984V174.24H401.913C400.505 174.24 399.419 173.888 398.657 173.184C397.894 172.421 397.513 171.395 397.513 170.104C397.513 168.755 397.894 167.728 398.657 167.024C399.419 166.32 400.505 165.968 401.913 165.968H406.489V157.96C406.489 156.141 406.958 154.763 407.897 153.824C408.894 152.885 410.273 152.416 412.033 152.416C413.793 152.416 415.142 152.885 416.081 153.824C417.019 154.763 417.489 156.141 417.489 157.96V165.968H426.817C428.225 165.968 429.31 166.32 430.073 167.024C430.835 167.728 431.217 168.755 431.217 170.104C431.217 171.395 430.835 172.421 430.073 173.184C429.31 173.888 428.225 174.24 426.817 174.24H417.489V192.368C417.489 195.184 418.105 197.296 419.337 198.704C420.569 200.112 422.563 200.816 425.321 200.816C426.318 200.816 427.198 200.728 427.961 200.552C428.723 200.376 429.398 200.259 429.985 200.2C430.689 200.141 431.275 200.376 431.745 200.904C432.214 201.373 432.449 202.371 432.449 203.896C432.449 205.069 432.243 206.125 431.833 207.064C431.481 207.944 430.806 208.56 429.809 208.912C429.046 209.147 428.049 209.352 426.817 209.528C425.585 209.763 424.499 209.88 423.561 209.88Z" fill="white"/>
        <path d="M446.774 209.704C445.014 209.704 443.665 209.235 442.726 208.296C441.788 207.299 441.318 205.891 441.318 204.072V170.808C441.318 168.989 441.788 167.611 442.726 166.672C443.665 165.733 444.985 165.264 446.686 165.264C448.388 165.264 449.708 165.733 450.646 166.672C451.585 167.611 452.054 168.989 452.054 170.808V177.232L451.086 174.592C452.26 171.659 454.078 169.341 456.542 167.64C459.006 165.939 461.94 165.088 465.342 165.088C468.804 165.088 471.649 165.909 473.878 167.552C476.108 169.195 477.662 171.717 478.542 175.12H477.31C478.484 172.011 480.42 169.576 483.118 167.816C485.817 165.997 488.926 165.088 492.446 165.088C495.732 165.088 498.43 165.733 500.542 167.024C502.713 168.315 504.326 170.28 505.382 172.92C506.438 175.501 506.966 178.787 506.966 182.776V204.072C506.966 205.891 506.468 207.299 505.47 208.296C504.532 209.235 503.182 209.704 501.422 209.704C499.662 209.704 498.313 209.235 497.374 208.296C496.435 207.299 495.966 205.891 495.966 204.072V183.216C495.966 179.931 495.409 177.525 494.294 176C493.238 174.475 491.42 173.712 488.838 173.712C485.964 173.712 483.705 174.739 482.062 176.792C480.42 178.787 479.598 181.573 479.598 185.152V204.072C479.598 205.891 479.129 207.299 478.19 208.296C477.252 209.235 475.902 209.704 474.142 209.704C472.382 209.704 471.004 209.235 470.006 208.296C469.068 207.299 468.598 205.891 468.598 204.072V183.216C468.598 179.931 468.041 177.525 466.926 176C465.87 174.475 464.081 173.712 461.558 173.712C458.684 173.712 456.425 174.739 454.782 176.792C453.14 178.787 452.318 181.573 452.318 185.152V204.072C452.318 207.827 450.47 209.704 446.774 209.704Z" fill="white"/>
        <path d="M541.458 209.88C536.999 209.88 533.127 208.971 529.842 207.152C526.557 205.333 524.005 202.752 522.186 199.408C520.367 196.005 519.458 192.016 519.458 187.44C519.458 183.979 519.957 180.899 520.954 178.2C522.01 175.443 523.506 173.096 525.442 171.16C527.378 169.165 529.695 167.669 532.394 166.672C535.093 165.616 538.114 165.088 541.458 165.088C545.917 165.088 549.789 165.997 553.074 167.816C556.359 169.635 558.911 172.216 560.73 175.56C562.549 178.904 563.458 182.864 563.458 187.44C563.458 190.901 562.93 194.011 561.874 196.768C560.877 199.525 559.41 201.901 557.474 203.896C555.538 205.832 553.221 207.328 550.522 208.384C547.823 209.381 544.802 209.88 541.458 209.88ZM541.458 201.52C543.629 201.52 545.535 200.992 547.178 199.936C548.821 198.88 550.082 197.325 550.962 195.272C551.901 193.16 552.37 190.549 552.37 187.44C552.37 182.747 551.373 179.256 549.378 176.968C547.383 174.621 544.743 173.448 541.458 173.448C539.287 173.448 537.381 173.976 535.738 175.032C534.095 176.029 532.805 177.584 531.866 179.696C530.986 181.749 530.546 184.331 530.546 187.44C530.546 192.075 531.543 195.595 533.538 198C535.533 200.347 538.173 201.52 541.458 201.52Z" fill="white"/>
        <path d="M592.622 209.704C591.155 209.704 589.864 209.323 588.75 208.56C587.694 207.797 586.814 206.624 586.11 205.04L572.118 172.568C571.59 171.277 571.384 170.075 571.502 168.96C571.678 167.845 572.206 166.965 573.086 166.32C574.024 165.616 575.286 165.264 576.87 165.264C578.219 165.264 579.304 165.587 580.126 166.232C580.947 166.819 581.68 167.963 582.326 169.664L594.206 199.32H591.566L603.798 169.576C604.443 167.933 605.176 166.819 605.998 166.232C606.878 165.587 608.051 165.264 609.518 165.264C610.808 165.264 611.835 165.616 612.598 166.32C613.36 166.965 613.83 167.845 614.006 168.96C614.182 170.016 613.976 171.189 613.39 172.48L599.134 205.04C598.488 206.624 597.608 207.797 596.494 208.56C595.438 209.323 594.147 209.704 592.622 209.704Z" fill="white"/>
        <path d="M645.473 209.88C640.603 209.88 636.409 208.971 632.889 207.152C629.369 205.333 626.641 202.752 624.705 199.408C622.827 196.064 621.889 192.104 621.889 187.528C621.889 183.069 622.798 179.168 624.617 175.824C626.494 172.48 629.046 169.869 632.273 167.992C635.558 166.056 639.283 165.088 643.449 165.088C646.499 165.088 649.227 165.587 651.633 166.584C654.097 167.581 656.179 169.019 657.881 170.896C659.641 172.773 660.961 175.061 661.841 177.76C662.779 180.4 663.249 183.392 663.249 186.736C663.249 187.792 662.867 188.613 662.105 189.2C661.401 189.728 660.374 189.992 659.025 189.992H630.777V183.656H655.505L654.097 184.976C654.097 182.277 653.686 180.019 652.865 178.2C652.102 176.381 650.958 175.003 649.433 174.064C647.966 173.067 646.118 172.568 643.889 172.568C641.425 172.568 639.313 173.155 637.553 174.328C635.851 175.443 634.531 177.056 633.593 179.168C632.713 181.221 632.273 183.685 632.273 186.56V187.176C632.273 191.987 633.387 195.595 635.617 198C637.905 200.347 641.249 201.52 645.649 201.52C647.174 201.52 648.875 201.344 650.753 200.992C652.689 200.581 654.507 199.907 656.209 198.968C657.441 198.264 658.526 197.971 659.465 198.088C660.403 198.147 661.137 198.469 661.665 199.056C662.251 199.643 662.603 200.376 662.721 201.256C662.838 202.077 662.662 202.928 662.193 203.808C661.782 204.688 661.049 205.451 659.993 206.096C657.939 207.387 655.563 208.355 652.865 209C650.225 209.587 647.761 209.88 645.473 209.88Z" fill="white"/>
    </g>
    <defs>
        <clipPath id="clip0_1_5">
            <rect width="663" height="259" fill="white"/>
        </clipPath>
    </defs>
</svg>
